name rise30.2954peak35.7071fall66.7804.mot
datacolumns 19
datarows 36
range 0.83499800000000 0.89334300000000
endheader
time	ground_force1_vx	ground_force1_vy	ground_force1_vz	ground_force1_px	ground_force1_py	ground_force1_pz	ground_force2_vx	ground_force2_vy	ground_force2_vz	ground_force2_px	ground_force2_py	ground_force2_pz	ground_torque1_x	ground_torque1_y	ground_torque1_z	ground_torque2_x	ground_torque2_y	ground_torque2_z	
0.83499800000000	-42.97463700000000	806.15438800000004	60.77052800000000	0.09965600000000	0.00000000000000	0.12391500000000	-0.93228000000000	10.79991800000000	0.93524300000000	0.00000000000000	0.00000000000000	0.00000000000000	0.00000000000000	24.72310500000000	0.00000000000000	0.00000000000000	0.15860200000000	0.00000000000000	
0.83666800000000	-43.62883000000000	805.26572899999996	60.65900700000000	0.09864500000000	0.00000000000000	0.12381400000000	-1.26386900000000	15.61676400000000	1.29140500000000	0.00000000000000	0.00000000000000	0.00000000000000	0.00000000000000	24.68124200000000	0.00000000000000	0.00000000000000	0.22829100000000	0.00000000000000	
0.83833900000000	-44.29220600000000	804.27253299999995	60.53445800000000	0.09764500000000	0.00000000000000	0.12371100000000	-1.61738400000000	21.07666300000000	1.67981800000000	0.00000000000000	0.00000000000000	0.00000000000000	0.00000000000000	24.63834600000000	0.00000000000000	0.00000000000000	0.30690900000000	0.00000000000000	
0.83999700000000	-44.96493300000000	803.17226900000003	60.39643200000000	0.09665500000000	0.00000000000000	0.12360600000000	-1.98063700000000	27.08850200000000	2.08991900000000	0.28660300000000	0.00000000000000	-0.10211500000000	0.00000000000000	24.59452400000000	0.00000000000000	0.00000000000000	0.78972900000000	0.00000000000000	
0.84166400000000	-45.64713400000000	801.96236199999998	60.24448700000000	0.09567600000000	0.00000000000000	0.12349800000000	-2.34034100000000	33.54235200000000	2.50998800000000	0.29453000000000	0.00000000000000	-0.10207300000000	0.00000000000000	24.54987800000000	0.00000000000000	0.00000000000000	0.98522800000000	0.00000000000000	
0.84333600000000	-46.33888000000000	800.64019900000005	60.07819000000000	0.09470700000000	0.00000000000000	0.12338800000000	-2.68303200000000	40.31902700000000	2.92802900000000	0.30150000000000	0.00000000000000	-0.10204200000000	0.00000000000000	24.50449800000000	0.00000000000000	0.00000000000000	1.18958400000000	0.00000000000000	
0.84499700000000	-47.04018900000000	799.20312699999999	59.89712100000000	0.09375000000000	0.00000000000000	0.12327500000000	-2.99597700000000	47.30003700000000	3.33265700000000	0.30768000000000	0.00000000000000	-0.10201900000000	0.00000000000000	24.45847000000000	0.00000000000000	0.00000000000000	1.39803300000000	0.00000000000000	
0.84666700000000	-47.75102300000000	797.64845400000002	59.70087300000000	0.09280400000000	0.00000000000000	0.12315900000000	-3.26793700000000	54.37661400000000	3.71384900000000	0.31320000000000	0.00000000000000	-0.10200600000000	0.00000000000000	24.41186900000000	0.00000000000000	0.00000000000000	1.60611600000000	0.00000000000000	
0.84834300000000	-48.47128400000000	795.97345199999995	59.48905200000000	0.09186900000000	0.00000000000000	0.12304100000000	-3.48973300000000	61.45684200000000	4.06350100000000	0.31816000000000	0.00000000000000	-0.10200000000000	0.00000000000000	24.36475900000000	0.00000000000000	0.00000000000000	1.80996300000000	0.00000000000000	
0.85000000000000	-49.20081300000000	794.17535799999996	59.26128400000000	0.09094600000000	0.00000000000000	0.12292000000000	-3.65456300000000	68.47037800000000	4.37574500000000	0.32264100000000	0.00000000000000	-0.10200200000000	0.00000000000000	24.31719500000000	0.00000000000000	0.00000000000000	2.00649100000000	0.00000000000000	
0.85167000000000	-49.93938500000000	792.25137500000005	59.01720900000000	0.09003400000000	0.00000000000000	0.12279700000000	-3.75808100000000	75.37065000000000	4.64704200000000	0.32670800000000	0.00000000000000	-0.10201100000000	0.00000000000000	24.26922200000000	0.00000000000000	0.00000000000000	2.19350300000000	0.00000000000000	
0.85333900000000	-50.68671100000000	790.19868099999997	58.75649100000000	0.08913300000000	0.00000000000000	0.12267100000000	-3.79827500000000	82.13473999999999	4.87605800000000	0.33041300000000	0.00000000000000	-0.10202600000000	0.00000000000000	24.22087100000000	0.00000000000000	0.00000000000000	2.36969400000000	0.00000000000000	
0.85500200000000	-51.44243000000000	788.01442499999996	58.47881000000000	0.08824400000000	0.00000000000000	0.12254200000000	-3.77517100000000	88.76133400000001	5.06338300000000	0.33380000000000	0.00000000000000	-0.10204800000000	0.00000000000000	24.17216400000000	0.00000000000000	0.00000000000000	2.53458700000000	0.00000000000000	
0.85666700000000	-52.20611100000000	785.69573600000001	58.18387400000000	0.08736600000000	0.00000000000000	0.12241100000000	-3.69043700000000	95.26725300000000	5.21114900000000	0.33690400000000	0.00000000000000	-0.10207600000000	0.00000000000000	24.12310700000000	0.00000000000000	0.00000000000000	2.68840700000000	0.00000000000000	
0.85835400000000	-52.97725200000000	783.23973000000001	57.87141200000000	0.08649900000000	0.00000000000000	0.12227700000000	-3.54692200000000	101.68309300000000	5.32257200000000	0.33975600000000	0.00000000000000	-0.10210900000000	0.00000000000000	24.07369700000000	0.00000000000000	0.00000000000000	2.83191300000000	0.00000000000000	
0.85999700000000	-53.75527300000000	780.64350800000000	57.54118000000000	0.08564400000000	0.00000000000000	0.12214100000000	-3.34818800000000	108.04849600000000	5.40149800000000	0.34238200000000	0.00000000000000	-0.10214900000000	0.00000000000000	24.02391400000000	0.00000000000000	0.00000000000000	2.96622200000000	0.00000000000000	
0.86167200000000	-54.53952000000000	777.90416800000003	57.19295900000000	0.08479800000000	0.00000000000000	0.12200200000000	-3.09807700000000	114.40749900000000	5.45197100000000	0.34480400000000	0.00000000000000	-0.10219300000000	0.00000000000000	23.97372700000000	0.00000000000000	0.00000000000000	3.09262700000000	0.00000000000000	
0.86333200000000	-55.32926300000000	775.01881100000003	56.82656200000000	0.08396400000000	0.00000000000000	0.12186000000000	-2.80032800000000	120.80432100000000	5.47786100000000	0.34704000000000	0.00000000000000	-0.10224300000000	0.00000000000000	23.92308800000000	0.00000000000000	0.00000000000000	3.21243500000000	0.00000000000000	
0.86500400000000	-56.12369100000000	771.98454500000003	56.44182800000000	0.08314000000000	0.00000000000000	0.12171600000000	-2.45828800000000	127.27984499999999	5.48256600000000	0.34910600000000	0.00000000000000	-0.10229800000000	0.00000000000000	23.87193900000000	0.00000000000000	0.00000000000000	3.32682900000000	0.00000000000000	
0.86667300000000	-56.92191600000000	768.79849300000001	56.03862900000000	0.08232600000000	0.00000000000000	0.12157000000000	-2.07470000000000	133.86893800000001	5.46880400000000	0.35101600000000	0.00000000000000	-0.10235700000000	0.00000000000000	23.82020300000000	0.00000000000000	0.00000000000000	3.43676500000000	0.00000000000000	
0.86833800000000	-57.72297300000000	765.45780300000001	55.61687000000000	0.08152100000000	0.00000000000000	0.12142100000000	-1.65158600000000	140.59867700000001	5.43849900000000	0.35278300000000	0.00000000000000	-0.10242200000000	0.00000000000000	23.76779200000000	0.00000000000000	0.00000000000000	3.54290500000000	0.00000000000000	
0.87000100000000	-58.52581400000000	761.95965500000000	55.17648700000000	0.08072600000000	0.00000000000000	0.12126900000000	-1.19021500000000	147.48744400000001	5.39273200000000	0.35441700000000	0.00000000000000	-0.10249000000000	0.00000000000000	23.71460100000000	0.00000000000000	0.00000000000000	3.64558200000000	0.00000000000000	
0.87167000000000	-59.32931600000000	758.30127300000004	54.71745000000000	0.07994000000000	0.00000000000000	0.12111600000000	-0.69113800000000	154.54481000000001	5.33178100000000	0.35592800000000	0.00000000000000	-0.10256400000000	0.00000000000000	23.66051000000000	0.00000000000000	0.00000000000000	3.74479500000000	0.00000000000000	
0.87333400000000	-60.13227500000000	754.47992899999997	54.23976500000000	0.07916200000000	0.00000000000000	0.12095900000000	-0.15427700000000	161.77206500000000	5.25520500000000	0.35732300000000	0.00000000000000	-0.10264200000000	0.00000000000000	23.60538800000000	0.00000000000000	0.00000000000000	3.84023700000000	0.00000000000000	
0.87500300000000	-60.93341100000000	750.49296000000004	53.74347500000000	0.07839200000000	0.00000000000000	0.12080100000000	0.42094100000000	169.16323399999999	5.16196600000000	0.35861100000000	0.00000000000000	-0.10272400000000	0.00000000000000	23.54908400000000	0.00000000000000	0.00000000000000	3.93133400000000	0.00000000000000	
0.87667500000000	-61.73137000000000	746.33777599999996	53.22865800000000	0.07763000000000	0.00000000000000	0.12064100000000	1.03543400000000	176.70643200000001	5.05058100000000	0.35979700000000	0.00000000000000	-0.10281000000000	0.00000000000000	23.49143700000000	0.00000000000000	0.00000000000000	4.01730300000000	0.00000000000000	
0.87833300000000	-62.52472200000000	742.01187100000004	52.69542900000000	0.07687500000000	0.00000000000000	0.12047800000000	1.69030900000000	184.38536900000000	4.91927500000000	0.36088700000000	0.00000000000000	-0.10290000000000	0.00000000000000	23.43227100000000	0.00000000000000	0.00000000000000	4.09721100000000	0.00000000000000	
0.87999800000000	-63.31196600000000	737.51284199999998	52.14394100000000	0.07612600000000	0.00000000000000	0.12031400000000	2.38670700000000	192.18088399999999	4.76613100000000	0.36188700000000	0.00000000000000	-0.10299400000000	0.00000000000000	23.37139400000000	0.00000000000000	0.00000000000000	4.17003700000000	0.00000000000000	
0.88166900000000	-64.09153200000000	732.83839499999999	51.57438500000000	0.07538400000000	0.00000000000000	0.12014700000000	3.12566800000000	200.07239100000001	4.58922700000000	0.36280100000000	0.00000000000000	-0.10309200000000	0.00000000000000	23.30860300000000	0.00000000000000	0.00000000000000	4.23473200000000	0.00000000000000	
0.88333500000000	-64.86178500000000	727.98636399999998	50.98699200000000	0.07464700000000	0.00000000000000	0.11997800000000	3.90802300000000	208.03913600000001	4.38674700000000	0.36363300000000	0.00000000000000	-0.10319400000000	0.00000000000000	23.24368300000000	0.00000000000000	0.00000000000000	4.29027000000000	0.00000000000000	
0.88500000000000	-65.62102500000000	722.95472600000005	50.38202900000000	0.07391500000000	0.00000000000000	0.11980800000000	4.73430000000000	216.06122700000000	4.15707000000000	0.36438700000000	0.00000000000000	-0.10330000000000	0.00000000000000	23.17640400000000	0.00000000000000	0.00000000000000	4.33568500000000	0.00000000000000	
0.88666300000000	-66.36749500000001	717.74161800000002	49.75980300000000	0.07318700000000	0.00000000000000	0.11963600000000	5.60467900000000	224.12038899999999	3.89883100000000	0.36506600000000	0.00000000000000	-0.10341000000000	0.00000000000000	23.10652800000000	0.00000000000000	0.00000000000000	4.37010400000000	0.00000000000000	
0.88833400000000	-67.09938099999999	712.34534599999995	49.12065800000000	0.07246300000000	0.00000000000000	0.11946300000000	6.51895100000000	232.20046300000001	3.61095300000000	0.36567300000000	0.00000000000000	-0.10352300000000	0.00000000000000	23.03380300000000	0.00000000000000	0.00000000000000	4.39276600000000	0.00000000000000	
0.88999800000000	-67.81482099999999	706.76441000000000	48.46497900000000	0.07174100000000	0.00000000000000	0.11928700000000	7.47652300000000	240.28764699999999	3.29266200000000	0.36621000000000	0.00000000000000	-0.10364000000000	0.00000000000000	22.95797000000000	0.00000000000000	0.00000000000000	4.40303000000000	0.00000000000000	
0.89167100000000	-68.51190500000000	700.99751500000002	47.79318500000000	0.07102200000000	0.00000000000000	0.11911100000000	8.47642400000000	248.37053100000000	2.94347300000000	0.36668100000000	0.00000000000000	-0.10376000000000	0.00000000000000	22.87875800000000	0.00000000000000	0.00000000000000	4.40037600000000	0.00000000000000	
0.89334300000000	-69.18868100000000	695.04358400000001	47.10573400000000	0.07030500000000	0.00000000000000	0.11893300000000	9.51734200000000	256.43995000000001	2.56317500000000	0.36708700000000	0.00000000000000	-0.10388300000000	0.00000000000000	22.79589200000000	0.00000000000000	0.00000000000000	4.38440000000000	0.00000000000000	
